<?xml version="1.0" standalone="no"?>
<!DOCTYPE svg PUBLIC "-//W3C//DTD SVG 20010904//EN"
 "http://www.w3.org/TR/2001/REC-SVG-20010904/DTD/svg10.dtd">
<svg version="1.0" xmlns="http://www.w3.org/2000/svg"
 width="128.000000pt" height="128.000000pt" viewBox="0 0 128.000000 128.000000"
 preserveAspectRatio="xMidYMid meet">

<g transform="translate(0.000000,128.000000) scale(0.100000,-0.100000)"
fill="#000000" stroke="none">
<path d="M732 1193 c-42 -21 -71 -62 -80 -114 l-7 -42 -64 -13 c-95 -20 -154
-63 -199 -149 l-27 -50 -3 99 c-1 55 -8 106 -14 113 -14 18 -308 19 -326 1
-17 -17 -17 -309 0 -326 7 -7 42 -12 88 -12 l77 0 -6 -33 c-4 -21 -19 -45 -42
-65 -59 -52 -69 -83 -69 -221 0 -114 1 -121 20 -121 14 0 20 -7 20 -22 0 -37
42 -100 87 -131 110 -78 275 -19 314 112 l12 41 159 0 c144 0 158 -2 158 -17
0 -10 13 -41 30 -69 53 -93 171 -130 268 -83 50 25 99 85 108 135 5 25 11 34
26 34 19 0 20 4 15 45 -12 84 -61 153 -137 190 -19 10 -36 19 -38 20 -4 3 -31
120 -29 120 63 21 100 71 93 128 -5 46 -29 85 -59 96 -35 13 -187 -12 -204
-35 -12 -16 -17 -17 -51 -5 -31 12 -90 63 -92 81 0 3 15 11 33 18 85 35 97 43
132 96 34 51 36 58 26 89 -12 35 -50 76 -88 96 -31 16 -93 13 -131 -6z m148
-183 c-11 -20 -56 -48 -64 -39 -2 2 -2 16 1 32 5 23 10 27 40 27 31 0 33 -2
23 -20z m-770 -49 c0 -71 11 -83 77 -79 l48 3 5 65 5 65 35 0 35 0 0 -140 0
-140 -137 -3 -138 -3 0 146 0 145 35 0 35 0 0 -59z m550 30 c0 -5 16 -26 35
-47 19 -21 35 -45 35 -53 1 -32 64 -88 125 -111 71 -28 69 -26 61 -39 -12 -18
-148 29 -202 70 -28 21 -56 39 -62 39 -6 0 -36 -12 -66 -26 l-53 -27 -62 29
-61 29 19 31 c27 44 84 85 139 100 56 15 92 17 92 5z m470 -236 c0 -18 -9 -43
-20 -56 l-19 -24 0 80 0 80 19 -24 c11 -13 20 -38 20 -56z m-429 21 c26 -20
74 -43 117 -55 l72 -22 0 -111 c0 -101 -2 -114 -22 -135 -16 -17 -32 -23 -65
-23 l-43 0 0 123 c0 144 3 138 -110 190 l-73 35 29 15 c40 22 45 21 95 -17z
m-64 -308 c-2 -24 -4 -5 -4 42 0 47 2 66 4 43 2 -24 2 -62 0 -85z m148 -128
c0 -19 -80 -27 -101 -9 -27 22 -14 30 44 27 43 -2 57 -7 57 -18z m-415 -94 c0
-20 -39 -46 -69 -46 -24 0 -71 35 -71 52 0 4 32 8 70 8 54 0 70 -3 70 -14z
m740 5 c0 -15 -51 -51 -72 -51 -27 0 -56 17 -68 40 -10 19 -7 20 65 20 41 0
75 -4 75 -9z"/>
</g>
</svg>
